<?xml version="1.0" encoding="utf-8"?>
<!-- Generator: Adobe Illustrator 27.0.0, SVG Export Plug-In . SVG Version: 6.00 Build 0)  -->
<svg version="1.1" id="Layer_1" xmlns="http://www.w3.org/2000/svg" xmlns:xlink="http://www.w3.org/1999/xlink" x="0px" y="0px"
	 viewBox="0 0 21 21" style="enable-background:new 0 0 21 21;" xml:space="preserve">
<style type="text/css">
	.st0{clip-path:url(#SVGID_00000026137621986905991220000016663254334961753741_);}
	.st1{fill:#3A3952;}
	.st2{fill:#FFFFFF;}
</style>
<g id="Group_162890" transform="translate(107.439)">
	<g>
		<defs>
			<rect id="SVGID_1_" x="-107" y="0.5" width="20.1" height="20"/>
		</defs>
		<clipPath id="SVGID_00000140723718970764564170000003100781637848926909_">
			<use xlink:href="#SVGID_1_"  style="overflow:visible;"/>
		</clipPath>
		<g id="Group_162889" style="clip-path:url(#SVGID_00000140723718970764564170000003100781637848926909_);">
			<path id="Path_83161" class="st1" d="M-87.8,0.5h-18.3c-0.5,0-0.9,0.4-0.9,0.8c0,0,0,0,0,0v18.3c0,0.5,0.4,0.9,0.9,0.8
				c0,0,0,0,0,0h18.3c0.5,0,0.9-0.4,0.9-0.8c0,0,0,0,0,0V1.3C-86.9,0.9-87.3,0.5-87.8,0.5C-87.8,0.5-87.8,0.5-87.8,0.5"/>
			<path id="Path_83162" class="st2" d="M-96.9,4.6c-1.4-0.2-2.6,0.8-2.8,2.2c0,0.1,0,0.2,0,0.3l0,1.3c-0.2,0-0.3,0.2-0.3,0.7
				c0,0.7,0.3,1.3,0.8,1.8c0.1,0.5,0.4,1,0.7,1.4l0,0c-1.1,0.7-2.5,1.2-3.4,1.6c-0.2,0.1-0.4,0.3-0.5,0.4v2h11.1v-2
				c-0.1-0.2-0.3-0.3-0.5-0.4c-0.9-0.5-2.2-0.9-3.4-1.6l0,0c0.4-0.4,0.6-0.9,0.7-1.4c0.5-0.5,0.8-1.1,0.8-1.8c0-0.5-0.1-0.7-0.3-0.7
				l0-1.3c0-1.4-1.2-2.5-2.5-2.5C-96.7,4.6-96.8,4.6-96.9,4.6z"/>
		</g>
	</g>
</g>
</svg>
