<?xml version="1.0" encoding="utf-8"?>
<!-- Generator: Adobe Illustrator 27.0.0, SVG Export Plug-In . SVG Version: 6.00 Build 0)  -->
<svg version="1.1" id="Layer_1" xmlns="http://www.w3.org/2000/svg" xmlns:xlink="http://www.w3.org/1999/xlink" x="0px" y="0px"
	 viewBox="0 0 20 20" style="enable-background:new 0 0 20 20;" xml:space="preserve">
<style type="text/css">
	.st0{fill:#3A3952;}
	.st1{fill:#FF00FF;fill-opacity:0;}
	.st2{fill:#FFFFFF;}
</style>
<g id="Group_104" transform="translate(112.5)">
	<path id="Box" class="st0" d="M-109.2,1h13.5c1.2,0,2.2,1,2.2,2.2v13.5c0,1.2-1,2.2-2.2,2.2h-13.5c-1.2,0-2.2-1-2.2-2.2V3.2
		C-111.5,2-110.5,1-109.2,1z"/>
	<g id="Checkmark" transform="translate(2 2)">
		<rect id="Frame" x="-111.5" y="1" class="st1" width="14" height="14"/>
		<path id="Shape_00000077290313328354300710000005704143622807367331_" class="st2" d="M-106.2,14c-0.4,0-0.9-0.2-1.1-0.6l-3.3-4.5
			c-0.3-0.4-0.4-1-0.2-1.5c0.2-0.5,0.6-0.9,1.2-0.9c0.5-0.1,1,0.2,1.3,0.6l2.2,3l5.7-7.5c0.3-0.4,0.8-0.7,1.3-0.6
			c0.5,0.1,1,0.4,1.2,0.9c0.2,0.5,0.1,1.1-0.2,1.5l-6.8,9C-105.4,13.8-105.8,14-106.2,14z"/>
	</g>
</g>
</svg>
