<?xml version="1.0" encoding="utf-8"?>
<!-- Generator: Adobe Illustrator 27.0.0, SVG Export Plug-In . SVG Version: 6.00 Build 0)  -->
<svg version="1.1" id="Layer_1" xmlns="http://www.w3.org/2000/svg" xmlns:xlink="http://www.w3.org/1999/xlink" x="0px" y="0px"
	 viewBox="0 0 20 20" style="enable-background:new 0 0 20 20;" xml:space="preserve">
<style type="text/css">
	.st0{fill:#FFFFFF;}
	.st1{fill:none;stroke:#3A3952;stroke-width:1.5;stroke-miterlimit:10;}
	.st2{fill:#3A3952;}
</style>
<g id="Group_162879" transform="translate(-429.45 214.404)">
	<g id="Group_162878" transform="translate(646 -214)">
		<path id="Path_83153" class="st0" d="M-198.5,18.6h-16c-0.6,0-1-0.4-1-1v-16c0-0.6,0.4-1,1-1h16c0.6,0,1,0.4,1,1v16
			C-197.5,18.1-198,18.6-198.5,18.6"/>
		<path id="Rectangle_147801" class="st1" d="M-214.5,0.6h16c0.6,0,1,0.4,1,1v16c0,0.6-0.4,1-1,1h-16c-0.6,0-1-0.4-1-1v-16
			C-215.5,1-215.1,0.6-214.5,0.6z"/>
		<path id="Path_83154" class="st2" d="M-206.5,13.6l-4.4-6.7h8.9L-206.5,13.6z"/>
	</g>
</g>
</svg>
