<?xml version="1.0" encoding="utf-8"?>
<!-- Generator: Adobe Illustrator 27.0.0, SVG Export Plug-In . SVG Version: 6.00 Build 0)  -->
<svg version="1.1" id="Layer_1" xmlns="http://www.w3.org/2000/svg" xmlns:xlink="http://www.w3.org/1999/xlink" x="0px" y="0px"
	 viewBox="0 0 25 25" style="enable-background:new 0 0 25 25;" xml:space="preserve">
<style type="text/css">
	.st0{fill:#3A3952;}
</style>
<g id="Group_162869" transform="translate(-148 -405)">
	<path id="Path_83150" class="st0" d="M148.9,416.7l3.6-3.6c0.4-0.5,1.2-0.5,1.7-0.1c0.5,0.4,0.5,1.2,0.1,1.7c0,0-0.1,0.1-0.1,0.1
		l-1.6,1.6h6.7v-6.7l-1.5,1.5c-0.5,0.5-1.2,0.5-1.7,0c-0.5-0.5-0.5-1.2,0-1.7l0,0l3.6-3.6c0.5-0.5,1.2-0.5,1.7,0c0,0,0,0,0,0l0,0
		l3.6,3.6c0.5,0.5,0.5,1.2,0,1.7s-1.2,0.5-1.7,0c0,0,0,0,0,0l-1.6-1.5v6.7h6.7l-1.6-1.6c-0.5-0.5-0.5-1.2,0-1.7s1.2-0.5,1.7,0
		c0,0,0,0,0,0l3.6,3.6c0.5,0.5,0.5,1.2,0,1.7c0,0,0,0,0,0l0,0l-3.6,3.6c-0.5,0.5-1.2,0.5-1.7,0s-0.5-1.2,0-1.7l0,0c0,0,0,0,0,0
		l1.6-1.6h-6.7v6.7l1.6-1.6c0.5-0.5,1.2-0.5,1.7,0c0.5,0.5,0.5,1.2,0,1.7l-3.6,3.6c-0.5,0.5-1.2,0.5-1.7,0c0,0,0,0,0,0l0,0l-3.6-3.6
		c-0.5-0.5-0.5-1.2,0-1.7c0.5-0.5,1.2-0.5,1.7,0l1.5,1.6v-6.7h-6.7l1.6,1.6c0.5,0.5,0.5,1.2,0,1.7s-1.2,0.5-1.7,0c0,0,0,0,0,0
		l-3.6-3.6C148.4,417.9,148.4,417.1,148.9,416.7C148.9,416.7,148.9,416.7,148.9,416.7L148.9,416.7"/>
</g>
</svg>
