<?xml version="1.0" encoding="utf-8"?>
<!-- Generator: Adobe Illustrator 27.0.0, SVG Export Plug-In . SVG Version: 6.00 Build 0)  -->
<svg version="1.1" id="Layer_1" xmlns="http://www.w3.org/2000/svg" xmlns:xlink="http://www.w3.org/1999/xlink" x="0px" y="0px"
	 viewBox="0 0 18 19" style="enable-background:new 0 0 18 19;" xml:space="preserve">
<style type="text/css">
	.st0{clip-path:url(#SVGID_00000147941329500253999270000008971050095960805256_);fill:none;stroke:#83B8F6;stroke-miterlimit:1;}
	.st1{clip-path:url(#SVGID_00000147941329500253999270000008971050095960805256_);fill:#83B8F6;}
</style>
<g>
	<defs>
		<rect id="SVGID_1_" x="1.1" y="0.5" width="15.9" height="18"/>
	</defs>
	<clipPath id="SVGID_00000078016021046682283550000006099710136353753231_">
		<use xlink:href="#SVGID_1_"  style="overflow:visible;"/>
	</clipPath>
	
		<path id="Path_83324" style="clip-path:url(#SVGID_00000078016021046682283550000006099710136353753231_);fill:none;stroke:#83B8F6;stroke-miterlimit:1;" d="
		M16.4,4c-0.1-0.1-0.1-0.1-0.2-0.1c-2.6-0.2-5-1.2-7-2.8C9.1,1,8.9,1,8.8,1.1c-2,1.7-4.4,2.7-7,2.9C1.7,3.9,1.6,4,1.6,4.2
		c0,0,0,0,0,0l0.2,3.4c0.2,4.5,3,8.6,7.2,10.4l0,0c0,0,0.1,0,0.1,0c0,0,0.1,0,0.1,0c4.2-1.8,6.9-5.9,7.2-10.4l0.2-3.4
		C16.4,4.1,16.4,4.1,16.4,4z"/>
	<path id="Path_83325" style="clip-path:url(#SVGID_00000078016021046682283550000006099710136353753231_);fill:#83B8F6;" d="
		M14.2,5.6c-1.8-0.3-3.6-1-5.1-2.1c-0.1-0.1-0.2-0.1-0.3,0C7.4,4.6,5.6,5.3,3.8,5.6c-0.1,0-0.2,0.1-0.2,0.2l0.1,2
		c0.2,3.4,2.2,6.4,5.2,7.9c0,0,0.1,0,0.1,0c0,0,0.1,0,0.1,0c3-1.5,5-4.5,5.2-7.9l0.1-2C14.4,5.7,14.3,5.6,14.2,5.6"/>
</g>
</svg>
