<?xml version="1.0" encoding="utf-8"?>
<!-- Generator: Adobe Illustrator 27.0.0, SVG Export Plug-In . SVG Version: 6.00 Build 0)  -->
<svg version="1.1" id="Layer_1" xmlns="http://www.w3.org/2000/svg" xmlns:xlink="http://www.w3.org/1999/xlink" x="0px" y="0px"
	 viewBox="0 0 18 18" style="enable-background:new 0 0 18 18;" xml:space="preserve">
<style type="text/css">
	.st0{clip-path:url(#SVGID_00000160154259031364566500000016135277422368407974_);}
	.st1{fill:#83B8F6;}
</style>
<g>
	<defs>
		<rect id="SVGID_1_" x="0.5" y="1" width="17" height="16"/>
	</defs>
	<clipPath id="SVGID_00000063595601429138691970000001510495240759700387_">
		<use xlink:href="#SVGID_1_"  style="overflow:visible;"/>
	</clipPath>
	<g id="Group_163325" style="clip-path:url(#SVGID_00000063595601429138691970000001510495240759700387_);">
		<path id="Path_83321" class="st1" d="M8.7,1C8.4,1,8,1.3,8,1.7L7.5,3.8L5.2,6.3C4.9,6.6,4.8,7,4.7,7.5v7.8c0,0.9,0.8,1.7,1.7,1.7
			h6.8c0.6,0,1.2-0.4,1.5-0.9l2.6-5.7c0.1-0.3,0.2-0.7,0.2-1V8.5c0-0.9-0.8-1.7-1.7-1.7H9.8c0.5-1.1,0.8-2.3,0.9-3.5
			c0-1-0.6-1.9-1.6-2.2C9,1,8.8,1,8.7,1 M1.8,6.8c-0.7,0-1.3,0.6-1.3,1.3v7.7c0,0.7,0.6,1.3,1.3,1.3S3,16.4,3,15.7V8.1
			C3,7.4,2.5,6.8,1.8,6.8"/>
	</g>
</g>
</svg>
