<?xml version="1.0" encoding="utf-8"?>
<!-- Generator: Adobe Illustrator 27.0.0, SVG Export Plug-In . SVG Version: 6.00 Build 0)  -->
<svg version="1.1" id="Layer_1" xmlns="http://www.w3.org/2000/svg" xmlns:xlink="http://www.w3.org/1999/xlink" x="0px" y="0px"
	 viewBox="0 0 19 19" style="enable-background:new 0 0 19 19;" xml:space="preserve">
<style type="text/css">
	.st0{fill:#E5E5E5;enable-background:new    ;}
	.st1{fill:#727272;enable-background:new    ;}
</style>
<path id="Path_00000121983832021766332900000001463101068035967378_" class="st0" d="M9.5,18.5c5,0,9-4,9-9s-4-9-9-9s-9,4-9,9
	S4.5,18.5,9.5,18.5z"/>
<path id="Path-2_00000081632955177071899280000013029796601579878544_" class="st1" d="M11.3,5.9c0-0.5-0.4-0.9-0.9-0.9
	S9.5,5.4,9.5,5.9v3.6H6.8c-0.5,0-0.9,0.4-0.9,0.9c0,0.5,0.4,0.9,0.9,0.9h3.6c0.5,0,0.9-0.4,0.9-0.9c0,0,0,0,0,0V5.9z"/>
</svg>
