<?xml version="1.0" encoding="utf-8"?>
<!-- Generator: Adobe Illustrator 27.0.0, SVG Export Plug-In . SVG Version: 6.00 Build 0)  -->
<svg version="1.1" id="Layer_1" xmlns="http://www.w3.org/2000/svg" xmlns:xlink="http://www.w3.org/1999/xlink" x="0px" y="0px"
	 viewBox="0 0 19 19" style="enable-background:new 0 0 19 19;" xml:space="preserve">
<style type="text/css">
	.st0{fill:#CFF1DA;enable-background:new    ;}
	.st1{fill:#00B948;}
</style>
<g>
	<path id="Path" class="st0" d="M9.5,18.5c5,0,9-4,9-9s-4-9-9-9s-9,4-9,9S4.5,18.5,9.5,18.5z"/>
	<path id="Path-2" class="st1" d="M13.7,8.3c0.3-0.4,0.3-0.9,0-1.3c-0.3-0.3-0.9-0.3-1.2,0l-3.9,3.9L6.5,8.9c-0.3-0.4-0.9-0.4-1.3,0
		c-0.4,0.3-0.4,0.9,0,1.3c0,0,0,0,0,0L8,12.8c0.4,0.4,0.9,0.4,1.3,0c0,0,0,0,0,0L13.7,8.3z"/>
</g>
</svg>
