<?xml version="1.0" encoding="utf-8"?>
<!-- Generator: Adobe Illustrator 27.0.0, SVG Export Plug-In . SVG Version: 6.00 Build 0)  -->
<svg version="1.1" id="Layer_1" xmlns="http://www.w3.org/2000/svg" xmlns:xlink="http://www.w3.org/1999/xlink" x="0px" y="0px"
	 viewBox="0 0 19 21" style="enable-background:new 0 0 19 21;" xml:space="preserve">
<style type="text/css">
	.st0{clip-path:url(#SVGID_00000051354279721389416940000002961827461904352647_);}
	.st1{fill:#3A3952;}
</style>
<g id="Group_162886" transform="translate(219 1.165)">
	<g>
		<defs>
			<rect id="SVGID_1_" x="-218.5" y="-0.7" width="18" height="20"/>
		</defs>
		<clipPath id="SVGID_00000090267959016003007710000016325337930545531835_">
			<use xlink:href="#SVGID_1_"  style="overflow:visible;"/>
		</clipPath>
		<g id="Group_162886-2" style="clip-path:url(#SVGID_00000090267959016003007710000016325337930545531835_);">
			<path id="Path_83159" class="st1" d="M-215.5-0.7v2h-1c-1.1,0-2,0.9-2,2v14c0,1.1,0.9,2,2,2h14c1.1,0,2-0.9,2-2v-14
				c0-1.1-0.9-2-2-2h-1v-2h-2v2h-8v-2H-215.5z M-216.5,5.1h14v12.2h-14V5.1z"/>
			<rect id="Rectangle_147808" x="-214.5" y="6.7" class="st1" width="2.1" height="2.1"/>
			<rect id="Rectangle_147809" x="-210.6" y="6.7" class="st1" width="2.1" height="2.1"/>
			<rect id="Rectangle_147810" x="-206.6" y="6.7" class="st1" width="2.1" height="2.1"/>
		</g>
	</g>
</g>
</svg>
