<?xml version="1.0" encoding="utf-8"?>
<!-- Generator: Adobe Illustrator 27.0.0, SVG Export Plug-In . SVG Version: 6.00 Build 0)  -->
<svg version="1.1" id="Layer_1" xmlns="http://www.w3.org/2000/svg" xmlns:xlink="http://www.w3.org/1999/xlink" x="0px" y="0px"
	 viewBox="0 0 19 19" style="enable-background:new 0 0 19 19;" xml:space="preserve">
<style type="text/css">
	.st0{fill:#F6D7D5;enable-background:new    ;}
	.st1{fill:#D4352F;}
</style>
<g>
	<path id="Path-3" class="st0" d="M9.5,18.5c5,0,9-4,9-9s-4-9-9-9s-9,4-9,9S4.5,18.5,9.5,18.5z"/>
	<path id="Path-4" class="st1" d="M10.4,5c0-0.5-0.4-0.9-0.9-0.9C9,4.1,8.6,4.5,8.6,5v5.4c0,0.5,0.4,0.9,0.9,0.9
		c0.5,0,0.9-0.4,0.9-0.9V5z"/>
	<path id="Path-5" class="st1" d="M9.5,14.9c0.5,0,0.9-0.4,0.9-0.9c0-0.5-0.4-0.9-0.9-0.9c-0.5,0-0.9,0.4-0.9,0.9
		C8.6,14.5,9,14.9,9.5,14.9L9.5,14.9z"/>
</g>
</svg>
