<?xml version="1.0" encoding="utf-8"?>
<!-- Generator: Adobe Illustrator 27.0.0, SVG Export Plug-In . SVG Version: 6.00 Build 0)  -->
<svg version="1.1" id="Layer_1" xmlns="http://www.w3.org/2000/svg" xmlns:xlink="http://www.w3.org/1999/xlink" x="0px" y="0px"
	 viewBox="0 0 19 19" style="enable-background:new 0 0 19 19;" xml:space="preserve">
<style type="text/css">
	.st0{fill:#CEE3FC;enable-background:new    ;}
	.st1{fill:#0073EE;}
</style>
<g>
	<circle id="Ellipse_9363" class="st0" cx="9.5" cy="9.5" r="9"/>
	<path id="Path-6" class="st1" d="M6.8,13.4c0.7,0.6,1.7,0.9,2.7,0.9c2.4,0,4.4-1.8,4.7-4.2h0.7c0.3,0,0.6-0.3,0.6-0.6
		c0-0.1,0-0.2-0.1-0.3l-1.3-1.9C14,7,13.6,6.9,13.3,7.1c-0.1,0-0.1,0.1-0.2,0.2l-1.3,1.9c-0.2,0.3-0.1,0.6,0.2,0.8
		c0.1,0.1,0.2,0.1,0.3,0.1H13c-0.3,1.7-1.8,3-3.5,3c-0.6,0-1.2-0.2-1.8-0.5L6.8,13.4z"/>
	<path id="Path-7" class="st1" d="M11.3,6.4c-0.5-0.3-1.2-0.5-1.8-0.5c-1.7,0-3.2,1.3-3.5,3h0.6c0.3,0,0.6,0.3,0.6,0.6
		c0,0.1,0,0.2-0.1,0.3l-1.3,1.9C5.7,12,5.3,12.1,5,11.9c-0.1,0-0.1-0.1-0.2-0.2L3.6,9.8C3.4,9.6,3.5,9.2,3.8,9
		C3.9,8.9,4,8.9,4.1,8.9h0.7c0.3-2.4,2.3-4.2,4.7-4.2c1,0,1.9,0.3,2.7,0.9L11.3,6.4z"/>
</g>
</svg>
