<?xml version="1.0" encoding="utf-8"?>
<!-- Generator: Adobe Illustrator 27.0.0, SVG Export Plug-In . SVG Version: 6.00 Build 0)  -->
<svg version="1.1" id="Layer_1" xmlns="http://www.w3.org/2000/svg" xmlns:xlink="http://www.w3.org/1999/xlink" x="0px" y="0px"
	 viewBox="0 0 5 17" style="enable-background:new 0 0 5 17;" xml:space="preserve">
<style type="text/css">
	.st0{enable-background:new    ;}
	.st1{fill:#878793;}
</style>
<g class="st0">
	<path class="st1" d="M3.9,3.9C3.5,4.3,3,4.5,2.5,4.5c-0.5,0-1-0.2-1.4-0.6C0.7,3.5,0.5,3,0.5,2.5s0.2-1,0.6-1.4
		C1.5,0.7,2,0.5,2.5,0.5c0.5,0,1,0.2,1.4,0.6C4.3,1.5,4.5,2,4.5,2.5S4.3,3.5,3.9,3.9z M1.1,7.1C1.5,6.7,2,6.5,2.5,6.5
		c0.5,0,1,0.2,1.4,0.6C4.3,7.5,4.5,8,4.5,8.5s-0.2,1-0.6,1.4c-0.4,0.4-0.9,0.6-1.4,0.6c-0.5,0-1-0.2-1.4-0.6C0.7,9.5,0.5,9,0.5,8.5
		S0.7,7.5,1.1,7.1z M1.1,13.1c0.4-0.4,0.9-0.6,1.4-0.6c0.5,0,1,0.2,1.4,0.6c0.4,0.4,0.6,0.9,0.6,1.4s-0.2,1-0.6,1.4
		c-0.4,0.4-0.9,0.6-1.4,0.6c-0.5,0-1-0.2-1.4-0.6c-0.4-0.4-0.6-0.9-0.6-1.4S0.7,13.5,1.1,13.1z"/>
</g>
</svg>
