<?xml version="1.0" encoding="utf-8"?>
<!-- Generator: Adobe Illustrator 27.0.0, SVG Export Plug-In . SVG Version: 6.00 Build 0)  -->
<svg version="1.1" id="Layer_1" xmlns="http://www.w3.org/2000/svg" xmlns:xlink="http://www.w3.org/1999/xlink" x="0px" y="0px"
	 viewBox="0 0 17 18" style="enable-background:new 0 0 17 18;" xml:space="preserve">
<style type="text/css">
	.st0{fill:#83B8F6;}
</style>
<g>
	<path id="Path_83329" class="st0" d="M15.3,11.8H1.7c-0.6,0-1.2-0.5-1.2-1.2V7.3c0-0.6,0.5-1.2,1.2-1.2h13.7c0.6,0,1.1,0.5,1.1,1.2
		v3.3C16.5,11.3,16,11.8,15.3,11.8"/>
	<path id="Path_83330" class="st0" d="M5.7,15.8V2.2C5.7,1.5,6.2,1,6.8,1h3.3c0.6,0,1.2,0.5,1.2,1.2v13.7c0,0.6-0.5,1.1-1.2,1.1H6.8
		C6.2,17,5.7,16.5,5.7,15.8"/>
</g>
</svg>
