<?xml version="1.0" encoding="utf-8"?>
<!-- Generator: Adobe Illustrator 27.0.0, SVG Export Plug-In . SVG Version: 6.00 Build 0)  -->
<svg version="1.1" id="Layer_1" xmlns="http://www.w3.org/2000/svg" xmlns:xlink="http://www.w3.org/1999/xlink" x="0px" y="0px"
	 viewBox="0 0 13 13" style="enable-background:new 0 0 13 13;" xml:space="preserve">
<style type="text/css">
	.st0{fill:#B3D5F9;}
</style>
<path id="Shape" class="st0" d="M10.1,12.5H2.9c-1.3,0-2.4-1.1-2.4-2.4V2.9c0-1.3,1.1-2.4,2.4-2.4c0,0,0,0,0,0h7.2
	c1.3,0,2.4,1.1,2.4,2.4v7.2C12.5,11.4,11.4,12.5,10.1,12.5z M5.9,8.3c-0.3,0-0.6,0.3-0.6,0.6c0,0.3,0.3,0.6,0.6,0.6h3.6
	c0.3,0,0.6-0.3,0.6-0.6c0-0.3-0.3-0.6-0.6-0.6H5.9z M3.5,8.3c-0.3,0-0.6,0.3-0.6,0.6c0,0.3,0.3,0.6,0.6,0.6c0.3,0,0.6-0.3,0.6-0.6
	C4.1,8.6,3.8,8.3,3.5,8.3L3.5,8.3z M5.9,5.9c-0.3,0-0.6,0.3-0.6,0.6c0,0.3,0.3,0.6,0.6,0.6l0,0h3.6c0.3,0,0.6-0.3,0.6-0.6
	c0-0.3-0.3-0.6-0.6-0.6H5.9z M3.5,5.9c-0.3,0-0.6,0.3-0.6,0.6s0.3,0.6,0.6,0.6s0.6-0.3,0.6-0.6l0,0C4.1,6.2,3.8,5.9,3.5,5.9z
	 M5.9,3.5c-0.3,0-0.6,0.3-0.6,0.6c0,0.3,0.3,0.6,0.6,0.6c0,0,0,0,0,0h3.6c0.3,0,0.6-0.3,0.6-0.6S9.8,3.5,9.5,3.5c0,0,0,0,0,0H5.9z
	 M3.5,3.5c-0.3,0-0.6,0.3-0.6,0.6c0,0.3,0.3,0.6,0.6,0.6s0.6-0.3,0.6-0.6l0,0C4.1,3.8,3.8,3.5,3.5,3.5z"/>
</svg>
